<svg xmlns="http://www.w3.org/2000/svg" width="800" height="800" xmlns:v="https://vecta.io/nano"><g stroke="hsla(0, 0%, 0%, 1.00)" fill="none" stroke-width="3.75"><use href="#B"/><use href="#C"/><use href="#D"/><use href="#E"/><use href="#E" x="44.445"/><use href="#E" x="88.889"/><use href="#E" x="133.334"/><use href="#E" x="177.778"/><use href="#F"/><use href="#G"/><use href="#E" x="311.111"/><use href="#E" x="355.556"/><use href="#E" x="400"/><use href="#E" x="444.445"/><use href="#E" x="488.889"/><use href="#E" x="533.334"/><use href="#E" x="577.778"/><use href="#H"/><use href="#I"/><use href="#B" y="44.444"/><use href="#C" y="44.444"/><use href="#D" y="44.444"/><use href="#E" y="44.444"/><use href="#E" x="44.445" y="44.444"/><use href="#E" x="88.889" y="44.444"/><use href="#E" x="133.334" y="44.444"/><use href="#E" x="177.778" y="44.444"/><use href="#F" y="44.444"/><use href="#G" y="44.444"/><use href="#E" x="311.111" y="44.444"/><use href="#E" x="355.556" y="44.444"/><use href="#E" x="400" y="44.444"/><use href="#E" x="444.445" y="44.444"/><use href="#E" x="488.889" y="44.444"/><use href="#E" x="533.334" y="44.444"/><use href="#E" x="577.778" y="44.444"/><use href="#H" y="44.444"/><use href="#I" y="44.444"/><use href="#B" y="88.889"/><use href="#C" y="88.889"/><use href="#D" y="88.889"/><use href="#E" y="88.889"/><use href="#E" x="44.445" y="88.889"/><use href="#E" x="88.889" y="88.889"/><use href="#E" x="133.334" y="88.889"/><use href="#E" x="177.778" y="88.889"/><use href="#F" y="88.889"/><use href="#G" y="88.889"/><use href="#E" x="311.111" y="88.889"/><use href="#E" x="355.556" y="88.889"/><use href="#E" x="400" y="88.889"/><use href="#E" x="444.445" y="88.889"/><use href="#E" x="488.889" y="88.889"/><use href="#E" x="533.334" y="88.889"/><use href="#E" x="577.778" y="88.889"/><use href="#H" y="88.889"/><use href="#I" y="88.889"/><use href="#B" y="133.333"/><use href="#C" y="133.333"/><use href="#D" y="133.333"/><use href="#E" y="133.333"/><use href="#E" x="44.445" y="133.333"/><use href="#E" x="88.889" y="133.333"/><use href="#E" x="133.334" y="133.333"/><use href="#E" x="177.778" y="133.333"/><use href="#F" y="133.333"/><use href="#G" y="133.333"/><use href="#E" x="311.111" y="133.333"/><use href="#E" x="355.556" y="133.333"/><use href="#E" x="400" y="133.333"/><use href="#E" x="444.445" y="133.333"/><use href="#E" x="488.889" y="133.333"/><use href="#E" x="533.334" y="133.333"/><use href="#E" x="577.778" y="133.333"/><use href="#H" y="133.333"/><use href="#I" y="133.333"/><use href="#B" y="177.778"/><use href="#C" y="177.778"/><use href="#D" y="177.778"/><use href="#E" y="177.778"/><use href="#E" x="44.445" y="177.778"/><use href="#E" x="88.889" y="177.778"/><use href="#E" x="133.334" y="177.778"/><use href="#E" x="177.778" y="177.778"/><use href="#F" y="177.778"/><use href="#G" y="177.778"/><use href="#E" x="311.111" y="177.778"/><use href="#E" x="355.556" y="177.778"/><use href="#E" x="400" y="177.778"/><use href="#E" x="444.445" y="177.778"/><use href="#E" x="488.889" y="177.778"/><use href="#E" x="533.334" y="177.778"/><use href="#E" x="577.778" y="177.778"/><use href="#H" y="177.778"/><use href="#I" y="177.778"/><use href="#B" y="222.222"/><use href="#C" y="222.222"/><use href="#D" y="222.222"/><use href="#E" y="222.222"/><use href="#E" x="44.445" y="222.222"/><use href="#E" x="88.889" y="222.222"/><use href="#E" x="133.334" y="222.222"/><use href="#E" x="177.778" y="222.222"/><use href="#F" y="222.222"/><use href="#G" y="222.222"/><use href="#E" x="311.111" y="222.222"/><use href="#E" x="355.556" y="222.222"/><use href="#E" x="400" y="222.222"/><use href="#E" x="444.445" y="222.222"/><use href="#E" x="488.889" y="222.222"/><use href="#E" x="533.334" y="222.222"/><use href="#E" x="577.778" y="222.222"/><use href="#H" y="222.222"/><use href="#I" y="222.222"/><use href="#B" y="266.667"/><use href="#C" y="266.667"/><use href="#D" y="266.667"/><use href="#E" y="266.667"/><use href="#E" x="44.445" y="266.667"/><use href="#E" x="88.889" y="266.667"/><use href="#E" x="133.334" y="266.667"/><use href="#E" x="177.778" y="266.667"/><use href="#F" y="266.667"/><use href="#G" y="266.667"/><use href="#E" x="311.111" y="266.667"/><use href="#E" x="355.556" y="266.667"/><use href="#E" x="400" y="266.667"/><use href="#E" x="444.445" y="266.667"/><use href="#E" x="488.889" y="266.667"/><use href="#E" x="533.334" y="266.667"/><use href="#E" x="577.778" y="266.667"/><use href="#H" y="266.667"/><use href="#I" y="266.667"/><use href="#B" y="311.111"/><use href="#C" y="311.111"/><use href="#D" y="311.111"/><use href="#E" y="311.111"/><use href="#E" x="44.445" y="311.111"/><use href="#E" x="88.889" y="311.111"/><use href="#E" x="133.334" y="311.111"/><use href="#E" x="177.778" y="311.111"/><use href="#F" y="311.111"/><use href="#G" y="311.111"/><use href="#E" x="311.111" y="311.111"/><use href="#E" x="355.556" y="311.111"/><use href="#E" x="400" y="311.111"/><use href="#E" x="444.445" y="311.111"/><use href="#E" x="488.889" y="311.111"/><use href="#E" x="533.334" y="311.111"/><use href="#E" x="577.778" y="311.111"/><use href="#H" y="311.111"/><use href="#I" y="311.111"/><path d="M0 355.556h44.444V400H0z"/><path d="M44.444 355.556h44.444V400H44.444z"/><path d="M88.889 355.556h44.444V400H88.889z"/><use href="#J"/><use href="#J" x="44.445"/><use href="#J" x="88.889"/><use href="#J" x="133.334"/><use href="#J" x="177.778"/><path d="M355.556 355.556H400V400h-44.444z"/><path d="M400 355.556h44.444V400H400z"/><use href="#J" x="311.111"/><use href="#J" x="355.556"/><use href="#J" x="400"/><use href="#J" x="444.445"/><use href="#J" x="488.889"/><use href="#J" x="533.334"/><use href="#J" x="577.778"/><path d="M755.556 355.556H800V400h-44.444z"/><path d="M800 355.556h44.444V400H800z"/><use href="#B" y="400"/><use href="#C" y="400"/><use href="#D" y="400"/><use href="#E" y="400"/><use href="#E" x="44.445" y="400"/><use href="#E" x="88.889" y="400"/><use href="#E" x="133.334" y="400"/><use href="#E" x="177.778" y="400"/><use href="#F" y="400"/><use href="#G" y="400"/><use href="#E" x="311.111" y="400"/><use href="#E" x="355.556" y="400"/><use href="#E" x="400" y="400"/><use href="#E" x="444.445" y="400"/><use href="#E" x="488.889" y="400"/><use href="#E" x="533.334" y="400"/><use href="#E" x="577.778" y="400"/><use href="#H" y="400"/><use href="#I" y="400"/><use href="#B" y="444.444"/><use href="#C" y="444.444"/><use href="#D" y="444.444"/><use href="#E" y="444.444"/><use href="#E" x="44.445" y="444.444"/><use href="#E" x="88.889" y="444.444"/><use href="#E" x="133.334" y="444.444"/><use href="#E" x="177.778" y="444.444"/><use href="#F" y="444.444"/><use href="#G" y="444.444"/><use href="#E" x="311.111" y="444.444"/><use href="#E" x="355.556" y="444.444"/><use href="#E" x="400" y="444.444"/><use href="#E" x="444.445" y="444.444"/><use href="#E" x="488.889" y="444.444"/><use href="#E" x="533.334" y="444.444"/><use href="#E" x="577.778" y="444.444"/><use href="#H" y="444.444"/><use href="#I" y="444.444"/><use href="#B" y="488.889"/><use href="#C" y="488.889"/><use href="#D" y="488.889"/><use href="#E" y="488.889"/><use href="#E" x="44.445" y="488.889"/><use href="#E" x="88.889" y="488.889"/><use href="#E" x="133.334" y="488.889"/><use href="#E" x="177.778" y="488.889"/><use href="#F" y="488.889"/><use href="#G" y="488.889"/><use href="#E" x="311.111" y="488.889"/><use href="#E" x="355.556" y="488.889"/><use href="#E" x="400" y="488.889"/><use href="#E" x="444.445" y="488.889"/><use href="#E" x="488.889" y="488.889"/><use href="#E" x="533.334" y="488.889"/><use href="#E" x="577.778" y="488.889"/><use href="#H" y="488.889"/><use href="#I" y="488.889"/><use href="#B" y="533.333"/><use href="#C" y="533.333"/><use href="#D" y="533.333"/><use href="#E" y="533.333"/><use href="#E" x="44.445" y="533.333"/><use href="#E" x="88.889" y="533.333"/><use href="#E" x="133.334" y="533.333"/><use href="#E" x="177.778" y="533.333"/><use href="#F" y="533.333"/><use href="#G" y="533.333"/><use href="#E" x="311.111" y="533.333"/><use href="#E" x="355.556" y="533.333"/><use href="#E" x="400" y="533.333"/><use href="#E" x="444.445" y="533.333"/><use href="#E" x="488.889" y="533.333"/><use href="#E" x="533.334" y="533.333"/><use href="#E" x="577.778" y="533.333"/><use href="#H" y="533.333"/><use href="#I" y="533.333"/><use href="#B" y="577.778"/><use href="#C" y="577.778"/><use href="#D" y="577.778"/><use href="#E" y="577.778"/><use href="#E" x="44.445" y="577.778"/><use href="#E" x="88.889" y="577.778"/><use href="#E" x="133.334" y="577.778"/><use href="#E" x="177.778" y="577.778"/><use href="#F" y="577.778"/><use href="#G" y="577.778"/><use href="#E" x="311.111" y="577.778"/><use href="#E" x="355.556" y="577.778"/><use href="#E" x="400" y="577.778"/><use href="#E" x="444.445" y="577.778"/><use href="#E" x="488.889" y="577.778"/><use href="#E" x="533.334" y="577.778"/><use href="#E" x="577.778" y="577.778"/><use href="#H" y="577.778"/><use href="#I" y="577.778"/><use href="#B" y="622.222"/><use href="#C" y="622.222"/><use href="#D" y="622.222"/><use href="#E" y="622.222"/><use href="#E" x="44.445" y="622.222"/><use href="#E" x="88.889" y="622.222"/><use href="#E" x="133.334" y="622.222"/><use href="#E" x="177.778" y="622.222"/><use href="#F" y="622.222"/><use href="#G" y="622.222"/><use href="#E" x="311.111" y="622.222"/><use href="#E" x="355.556" y="622.222"/><use href="#E" x="400" y="622.222"/><use href="#E" x="444.445" y="622.222"/><use href="#E" x="488.889" y="622.222"/><use href="#E" x="533.334" y="622.222"/><use href="#E" x="577.778" y="622.222"/><use href="#H" y="622.222"/><use href="#I" y="622.222"/><use href="#B" y="666.667"/><use href="#C" y="666.667"/><use href="#D" y="666.667"/><use href="#E" y="666.667"/><use href="#E" x="44.445" y="666.667"/><use href="#E" x="88.889" y="666.667"/><use href="#E" x="133.334" y="666.667"/><use href="#E" x="177.778" y="666.667"/><use href="#F" y="666.667"/><use href="#G" y="666.667"/><use href="#E" x="311.111" y="666.667"/><use href="#E" x="355.556" y="666.667"/><use href="#E" x="400" y="666.667"/><use href="#E" x="444.445" y="666.667"/><use href="#E" x="488.889" y="666.667"/><use href="#E" x="533.334" y="666.667"/><use href="#E" x="577.778" y="666.667"/><use href="#H" y="666.667"/><use href="#I" y="666.667"/><use href="#B" y="711.111"/><use href="#C" y="711.111"/><use href="#D" y="711.111"/><use href="#E" y="711.111"/><use href="#E" x="44.445" y="711.111"/><use href="#E" x="88.889" y="711.111"/><use href="#E" x="133.334" y="711.111"/><use href="#E" x="177.778" y="711.111"/><use href="#F" y="711.111"/><use href="#G" y="711.111"/><use href="#E" x="311.111" y="711.111"/><use href="#E" x="355.556" y="711.111"/><use href="#E" x="400" y="711.111"/><use href="#E" x="444.445" y="711.111"/><use href="#E" x="488.889" y="711.111"/><use href="#E" x="533.334" y="711.111"/><use href="#E" x="577.778" y="711.111"/><use href="#H" y="711.111"/><use href="#I" y="711.111"/><path d="M0 755.556h44.444V800H0z"/><path d="M44.444 755.556h44.444V800H44.444z"/><path d="M88.889 755.556h44.444V800H88.889z"/><use href="#K"/><use href="#K" x="44.445"/><use href="#K" x="88.889"/><use href="#K" x="133.334"/><use href="#K" x="177.778"/><path d="M355.556 755.556H400V800h-44.444z"/><path d="M400 755.556h44.444V800H400z"/><use href="#K" x="311.111"/><use href="#K" x="355.556"/><use href="#K" x="400"/><use href="#K" x="444.445"/><use href="#K" x="488.889"/><use href="#K" x="533.334"/><use href="#K" x="577.778"/><path d="M755.556 755.556H800V800h-44.444z"/><path d="M800 755.556h44.444V800H800z"/><use href="#B" y="800"/><use href="#C" y="800"/><use href="#D" y="800"/><use href="#E" y="800"/><use href="#E" x="44.445" y="800"/><use href="#E" x="88.889" y="800"/><use href="#E" x="133.334" y="800"/><use href="#E" x="177.778" y="800"/><use href="#F" y="800"/><use href="#G" y="800"/><use href="#E" x="311.111" y="800"/><use href="#E" x="355.556" y="800"/><use href="#E" x="400" y="800"/><use href="#E" x="444.445" y="800"/><use href="#E" x="488.889" y="800"/><use href="#E" x="533.334" y="800"/><use href="#E" x="577.778" y="800"/><use href="#H" y="800"/><use href="#I" y="800"/></g><defs ><path id="B" d="M0 0h44.444v44.444H0z"/><path id="C" d="M44.444 0h44.444v44.444H44.444z"/><path id="D" d="M88.889 0h44.444v44.444H88.889z"/><path id="E" d="M133.333 0h44.444v44.444h-44.444z"/><path id="F" d="M355.556 0H400v44.444h-44.444z"/><path id="G" d="M400 0h44.444v44.444H400z"/><path id="H" d="M755.556 0H800v44.444h-44.444z"/><path id="I" d="M800 0h44.444v44.444H800z"/><path id="J" d="M133.333 355.556h44.444V400h-44.444z"/><path id="K" d="M133.333 755.556h44.444V800h-44.444z"/></defs></svg>